<?xml version="1.0" encoding="UTF-8"?>
<svg xmlns="http://www.w3.org/2000/svg" xmlns:xlink="http://www.w3.org/1999/xlink" width="150pt" height="150pt" viewBox="0 0 150 150" version="1.1">
<g id="surface1">
<path style=" stroke:none;fill-rule:evenodd;fill:rgb(98.823529%,86.27451%,1.568627%);fill-opacity:1;" d="M 72.859375 40.710938 C 72.707031 40.863281 72.140625 40.9375 70.839844 40.972656 C 69.375 41.015625 68.976562 41.074219 68.742188 41.289062 C 68.574219 41.4375 68.214844 41.550781 67.902344 41.550781 C 67.550781 41.550781 67.242188 41.660156 67.050781 41.851562 C 66.851562 42.050781 66.550781 42.148438 66.148438 42.148438 C 65.734375 42.148438 65.46875 42.242188 65.289062 42.449219 C 65.148438 42.613281 64.882812 42.75 64.703125 42.75 C 64.515625 42.75 64.117188 43.011719 63.785156 43.351562 C 63.460938 43.679688 63.054688 43.949219 62.886719 43.949219 C 62.714844 43.949219 62.308594 44.21875 61.984375 44.550781 C 61.660156 44.878906 61.289062 45.148438 61.160156 45.148438 C 60.8125 45.148438 60.449219 45.3125 60.449219 45.46875 C 60.449219 45.546875 60.179688 45.859375 59.851562 46.160156 C 59.425781 46.550781 59.25 46.835938 59.25 47.132812 C 59.25 47.394531 59.171875 47.550781 59.035156 47.550781 C 58.917969 47.550781 58.777344 47.683594 58.726562 47.851562 C 58.671875 48.015625 58.539062 48.148438 58.429688 48.148438 C 58.21875 48.148438 58.050781 48.46875 58.050781 48.859375 C 58.050781 48.992188 57.78125 49.363281 57.449219 49.683594 C 56.953125 50.171875 56.851562 50.371094 56.851562 50.863281 C 56.851562 51.25 56.746094 51.550781 56.550781 51.75 C 56.351562 51.949219 56.25 52.25 56.25 52.648438 C 56.25 53.050781 56.148438 53.351562 55.949219 53.550781 C 55.71875 53.78125 55.648438 54.050781 55.648438 54.726562 C 55.648438 55.414062 55.585938 55.664062 55.351562 55.875 C 55.0625 56.136719 55.050781 56.335938 55.050781 60.554688 L 55.050781 64.960938 L 54.527344 65.484375 C 54.238281 65.769531 53.957031 66.191406 53.902344 66.414062 C 53.847656 66.640625 53.691406 66.902344 53.5625 67 C 53.1875 67.277344 53.207031 73.789062 53.585938 74.207031 C 53.738281 74.375 53.851562 74.734375 53.851562 75.050781 C 53.851562 75.398438 53.960938 75.710938 54.148438 75.898438 C 54.316406 76.066406 54.449219 76.335938 54.449219 76.5 C 54.449219 76.664062 54.585938 76.933594 54.75 77.101562 C 54.914062 77.265625 55.050781 77.535156 55.050781 77.699219 C 55.050781 77.863281 55.183594 78.136719 55.351562 78.300781 C 55.515625 78.464844 55.648438 78.734375 55.648438 78.898438 C 55.648438 79.066406 56.050781 79.601562 56.550781 80.101562 C 57.046875 80.59375 57.449219 81.128906 57.449219 81.289062 C 57.449219 81.445312 57.71875 81.839844 58.050781 82.164062 C 58.558594 82.664062 58.648438 82.847656 58.648438 83.375 C 58.648438 83.835938 58.726562 84.046875 58.949219 84.183594 C 59.125 84.296875 59.25 84.535156 59.25 84.769531 C 59.25 84.984375 59.347656 85.242188 59.464844 85.34375 C 59.582031 85.441406 59.722656 85.714844 59.773438 85.949219 C 59.828125 86.1875 59.964844 86.460938 60.085938 86.558594 C 60.203125 86.65625 60.300781 86.863281 60.300781 87.019531 C 60.300781 87.171875 60.570312 87.585938 60.898438 87.9375 C 61.421875 88.492188 61.800781 89.160156 61.320312 88.679688 C 61.003906 88.363281 59.582031 88.453125 59.363281 88.800781 C 59.21875 89.03125 59.015625 89.101562 58.464844 89.101562 C 57.914062 89.101562 57.710938 89.167969 57.566406 89.398438 C 57.453125 89.582031 57.214844 89.699219 56.96875 89.699219 C 56.714844 89.699219 56.5 89.8125 56.398438 90 C 56.292969 90.199219 56.085938 90.300781 55.789062 90.300781 C 55.542969 90.300781 55.304688 90.394531 55.261719 90.507812 C 55.21875 90.621094 54.859375 90.757812 54.457031 90.808594 C 54.058594 90.863281 53.65625 91 53.558594 91.113281 C 53.464844 91.226562 53.160156 91.359375 52.882812 91.414062 C 52.605469 91.464844 52.339844 91.609375 52.292969 91.730469 C 52.238281 91.871094 52 91.949219 51.625 91.949219 C 51.269531 91.949219 50.890625 92.066406 50.660156 92.25 C 50.449219 92.414062 50.148438 92.550781 49.988281 92.550781 C 49.828125 92.550781 49.574219 92.683594 49.425781 92.851562 C 49.277344 93.015625 48.996094 93.148438 48.804688 93.148438 C 48.609375 93.148438 48.367188 93.285156 48.265625 93.449219 C 48.152344 93.632812 47.914062 93.75 47.664062 93.75 C 47.414062 93.75 47.179688 93.867188 47.066406 94.050781 C 46.953125 94.230469 46.714844 94.351562 46.464844 94.351562 C 46.214844 94.351562 45.980469 94.46875 45.863281 94.648438 C 45.753906 94.832031 45.515625 94.949219 45.269531 94.949219 C 45.015625 94.949219 44.800781 95.0625 44.699219 95.25 C 44.59375 95.445312 44.386719 95.550781 44.101562 95.550781 C 43.8125 95.550781 43.605469 95.65625 43.5 95.851562 C 43.402344 96.03125 43.1875 96.148438 42.949219 96.148438 C 42.699219 96.148438 42.382812 96.335938 42.0625 96.675781 C 41.789062 96.96875 41.363281 97.246094 41.113281 97.292969 C 40.855469 97.347656 40.621094 97.507812 40.570312 97.667969 C 40.519531 97.824219 40.421875 97.949219 40.355469 97.949219 C 40.09375 97.949219 36.898438 101.296875 36.898438 101.570312 C 36.898438 101.722656 36.628906 102.121094 36.300781 102.449219 C 35.96875 102.78125 35.699219 103.191406 35.699219 103.359375 C 35.699219 103.53125 35.464844 103.894531 35.175781 104.164062 C 34.773438 104.542969 34.628906 104.824219 34.554688 105.355469 C 34.503906 105.734375 34.367188 106.125 34.253906 106.21875 C 34.140625 106.308594 34.050781 106.566406 34.050781 106.78125 C 34.050781 107.015625 33.925781 107.253906 33.75 107.363281 C 33.566406 107.480469 33.449219 107.714844 33.449219 107.964844 C 33.449219 108.214844 33.332031 108.453125 33.148438 108.566406 C 32.917969 108.710938 32.851562 108.914062 32.851562 109.464844 C 32.851562 110.015625 32.78125 110.21875 32.550781 110.363281 C 32.324219 110.503906 32.25 110.714844 32.25 111.191406 C 32.25 111.648438 32.164062 111.90625 31.949219 112.089844 C 31.695312 112.308594 31.648438 112.53125 31.648438 113.546875 C 31.648438 114.550781 31.601562 114.800781 31.351562 115.050781 C 30.953125 115.449219 30.882812 121.671875 31.269531 122.183594 C 31.390625 122.34375 31.492188 122.40625 31.496094 122.324219 C 31.5 122.242188 31.589844 122.34375 31.691406 122.550781 C 31.816406 122.796875 32.035156 122.941406 32.324219 122.976562 C 32.566406 123.003906 32.855469 123.15625 32.964844 123.3125 C 33.117188 123.527344 33.347656 123.601562 33.871094 123.601562 C 34.414062 123.601562 34.621094 123.667969 34.765625 123.898438 C 34.90625 124.125 35.113281 124.199219 35.59375 124.199219 C 36.046875 124.199219 36.308594 124.285156 36.488281 124.5 C 36.671875 124.714844 36.933594 124.800781 37.390625 124.800781 C 37.847656 124.800781 38.109375 124.886719 38.289062 125.101562 C 38.496094 125.339844 38.734375 125.398438 39.488281 125.398438 C 40.246094 125.398438 40.484375 125.457031 40.691406 125.699219 C 40.890625 125.933594 41.132812 126 41.789062 126 C 42.402344 126 42.730469 126.082031 43.007812 126.300781 C 43.332031 126.554688 43.617188 126.601562 44.863281 126.601562 C 46.109375 126.601562 46.359375 126.640625 46.480469 126.863281 C 46.609375 127.089844 46.917969 127.132812 48.777344 127.175781 C 50.527344 127.214844 50.976562 127.269531 51.203125 127.472656 C 51.433594 127.679688 51.890625 127.734375 53.855469 127.773438 C 55.6875 127.808594 56.269531 127.871094 56.410156 128.035156 C 56.675781 128.359375 93.324219 128.359375 93.589844 128.035156 C 93.726562 127.875 94.277344 127.808594 95.84375 127.773438 C 97.527344 127.734375 97.972656 127.675781 98.195312 127.472656 C 98.421875 127.269531 98.875 127.214844 100.625 127.175781 C 102.464844 127.132812 102.800781 127.085938 102.964844 126.863281 C 103.125 126.644531 103.398438 126.601562 104.582031 126.601562 C 105.78125 126.601562 106.070312 126.550781 106.390625 126.300781 C 106.667969 126.082031 107 126 107.609375 126 C 108.25 126 108.523438 125.929688 108.75 125.699219 C 108.984375 125.464844 109.25 125.398438 109.953125 125.398438 C 110.667969 125.398438 110.90625 125.339844 111.109375 125.101562 C 111.316406 124.859375 111.550781 124.800781 112.308594 124.800781 C 113.066406 124.800781 113.304688 124.742188 113.511719 124.5 C 113.691406 124.285156 113.953125 124.199219 114.40625 124.199219 C 114.886719 124.199219 115.09375 124.125 115.234375 123.898438 C 115.347656 123.71875 115.585938 123.601562 115.832031 123.601562 C 116.105469 123.601562 116.324219 123.472656 116.488281 123.226562 C 116.621094 123.019531 116.792969 122.890625 116.863281 122.933594 C 116.9375 122.980469 117.171875 122.84375 117.382812 122.628906 C 117.597656 122.417969 117.832031 122.285156 117.910156 122.332031 C 117.988281 122.378906 118.050781 122.273438 118.050781 122.097656 C 118.050781 121.875 118.195312 121.71875 118.511719 121.597656 L 118.976562 121.425781 L 118.914062 118.964844 C 118.859375 116.890625 118.8125 116.480469 118.601562 116.324219 C 118.398438 116.179688 118.351562 115.882812 118.351562 114.847656 C 118.351562 113.75 118.304688 113.503906 118.050781 113.25 C 117.816406 113.015625 117.75 112.75 117.75 112.050781 C 117.75 111.316406 117.695312 111.117188 117.449219 110.964844 C 117.269531 110.851562 117.148438 110.617188 117.148438 110.363281 C 117.148438 110.113281 117.03125 109.878906 116.851562 109.765625 C 116.617188 109.621094 116.550781 109.414062 116.550781 108.863281 C 116.550781 108.316406 116.480469 108.109375 116.25 107.964844 C 116.023438 107.824219 115.949219 107.617188 115.949219 107.125 C 115.949219 106.699219 115.847656 106.339844 115.648438 106.089844 C 115.484375 105.882812 115.351562 105.609375 115.351562 105.484375 C 115.351562 105.363281 115.113281 105.039062 114.824219 104.765625 C 114.535156 104.492188 114.300781 104.128906 114.300781 103.960938 C 114.300781 103.789062 114.164062 103.515625 114 103.351562 C 113.835938 103.183594 113.699219 102.910156 113.699219 102.742188 C 113.699219 102.566406 113.320312 102.066406 112.800781 101.5625 C 112.285156 101.0625 111.898438 100.554688 111.898438 100.382812 C 111.898438 99.984375 110.90625 99 110.507812 99 C 110.3125 99 109.78125 98.570312 109.109375 97.875 C 108.371094 97.105469 107.917969 96.75 107.675781 96.75 C 107.457031 96.746094 107.128906 96.523438 106.800781 96.148438 C 106.433594 95.730469 106.152344 95.550781 105.867188 95.550781 C 105.613281 95.550781 105.398438 95.4375 105.300781 95.25 C 105.199219 95.0625 104.984375 94.949219 104.730469 94.949219 C 104.484375 94.949219 104.246094 94.832031 104.136719 94.648438 C 104.019531 94.46875 103.785156 94.351562 103.535156 94.351562 C 103.285156 94.351562 103.046875 94.230469 102.933594 94.050781 C 102.820312 93.867188 102.585938 93.75 102.335938 93.75 C 102.085938 93.75 101.847656 93.632812 101.734375 93.449219 C 101.59375 93.226562 101.386719 93.148438 100.898438 93.148438 C 100.4375 93.148438 100.167969 93.0625 99.976562 92.851562 C 99.824219 92.683594 99.542969 92.550781 99.347656 92.550781 C 99.152344 92.550781 98.953125 92.449219 98.90625 92.328125 C 98.859375 92.207031 98.589844 92.066406 98.308594 92.011719 C 98.027344 91.960938 97.738281 91.816406 97.671875 91.691406 C 97.597656 91.5625 97.234375 91.433594 96.808594 91.386719 C 96.40625 91.34375 96.019531 91.214844 95.953125 91.105469 C 95.890625 90.992188 95.667969 90.898438 95.464844 90.898438 C 95.261719 90.898438 94.980469 90.765625 94.839844 90.601562 C 94.652344 90.382812 94.398438 90.300781 93.902344 90.300781 C 93.382812 90.300781 93.175781 90.226562 93.035156 90 C 92.921875 89.816406 92.683594 89.699219 92.433594 89.699219 C 92.183594 89.699219 91.949219 89.582031 91.835938 89.398438 C 91.722656 89.21875 91.484375 89.101562 91.234375 89.101562 C 90.984375 89.101562 90.75 88.980469 90.636719 88.800781 C 90.308594 88.28125 89.050781 88.378906 88.457031 88.96875 C 87.757812 89.667969 87.796875 89.257812 88.496094 88.519531 C 88.828125 88.171875 89.101562 87.78125 89.101562 87.65625 C 89.101562 87.527344 89.234375 87.25 89.398438 87.039062 C 89.566406 86.832031 89.699219 86.542969 89.699219 86.398438 C 89.699219 86.253906 89.796875 86.054688 89.914062 85.957031 C 90.035156 85.859375 90.171875 85.585938 90.226562 85.351562 C 90.277344 85.113281 90.417969 84.839844 90.535156 84.742188 C 90.679688 84.621094 90.75 84.261719 90.75 83.660156 L 90.75 82.757812 L 92.25 81.269531 C 93.125 80.402344 93.75 79.660156 93.75 79.492188 C 93.75 79.332031 93.886719 79.066406 94.050781 78.898438 C 94.214844 78.734375 94.351562 78.464844 94.351562 78.300781 C 94.351562 78.136719 94.484375 77.863281 94.648438 77.699219 C 94.816406 77.535156 94.949219 77.265625 94.949219 77.101562 C 94.949219 76.933594 95.085938 76.664062 95.25 76.5 C 95.4375 76.3125 95.550781 76 95.550781 75.660156 C 95.550781 75.347656 95.675781 74.960938 95.851562 74.742188 C 96.089844 74.4375 96.148438 74.132812 96.148438 73.230469 C 96.148438 72.363281 96.210938 72.03125 96.414062 71.808594 C 96.78125 71.402344 96.792969 69.164062 96.425781 68.753906 C 96.253906 68.558594 96.164062 68.117188 96.125 67.273438 C 96.074219 66.117188 96.050781 66.054688 95.511719 65.515625 L 94.949219 64.960938 L 94.949219 62.03125 C 94.949219 59.300781 94.929688 59.078125 94.648438 58.800781 C 94.390625 58.539062 94.351562 58.300781 94.351562 57.023438 C 94.351562 55.738281 94.3125 55.511719 94.050781 55.273438 C 93.886719 55.125 93.75 54.84375 93.75 54.652344 C 93.75 54.460938 93.613281 54.21875 93.449219 54.113281 C 93.21875 53.972656 93.148438 53.765625 93.148438 53.230469 C 93.148438 52.578125 92.878906 52.074219 92.648438 52.300781 C 92.59375 52.355469 92.550781 52.300781 92.550781 52.179688 C 92.550781 52.0625 92.28125 51.714844 91.949219 51.410156 C 91.441406 50.941406 91.351562 50.769531 91.351562 50.253906 C 91.351562 49.832031 91.257812 49.566406 91.050781 49.390625 C 90.851562 49.21875 90.75 48.949219 90.75 48.578125 C 90.75 47.878906 90.625 47.550781 90.359375 47.550781 C 90.242188 47.550781 90.148438 47.457031 90.148438 47.339844 C 90.148438 47.226562 90.058594 47.097656 89.945312 47.054688 C 89.835938 47.011719 89.703125 46.773438 89.652344 46.527344 C 89.542969 45.980469 88.136719 44.550781 87.707031 44.550781 C 87.539062 44.550781 87.136719 44.28125 86.816406 43.949219 C 86.480469 43.609375 86.082031 43.351562 85.898438 43.351562 C 85.714844 43.351562 85.453125 43.214844 85.308594 43.050781 C 85.167969 42.886719 84.917969 42.75 84.75 42.75 C 84.585938 42.75 84.316406 42.613281 84.148438 42.449219 C 83.949219 42.25 83.648438 42.148438 83.25 42.148438 C 82.851562 42.148438 82.550781 42.050781 82.351562 41.851562 C 82.160156 41.660156 81.851562 41.550781 81.5 41.550781 C 81.183594 41.550781 80.824219 41.4375 80.660156 41.289062 C 80.425781 41.074219 80.023438 41.015625 78.546875 40.976562 C 77.171875 40.9375 76.695312 40.871094 76.605469 40.710938 C 76.453125 40.445312 74.839844 40.417969 74.578125 40.679688 C 74.441406 40.820312 74.359375 40.820312 74.21875 40.679688 C 73.972656 40.433594 73.117188 40.453125 72.859375 40.710938 M 64.011719 91.644531 C 65.117188 92.757812 65.953125 93.691406 65.867188 93.71875 C 65.691406 93.777344 61.5 89.601562 61.5 89.367188 C 61.5 89.148438 61.746094 89.371094 64.011719 91.644531 M 86.101562 91.949219 C 85.761719 92.289062 85.410156 92.546875 85.328125 92.515625 C 85.242188 92.488281 85.5 92.140625 85.894531 91.746094 C 86.292969 91.347656 86.640625 91.09375 86.667969 91.175781 C 86.695312 91.261719 86.441406 91.609375 86.101562 91.949219 M 83.398438 94.050781 C 83.3125 94.214844 83.140625 94.351562 83.019531 94.351562 C 82.835938 94.351562 82.828125 94.300781 82.984375 94.050781 C 83.089844 93.886719 83.257812 93.75 83.367188 93.75 C 83.515625 93.75 83.523438 93.820312 83.398438 94.050781 M 67.574219 94.648438 C 67.816406 94.914062 67.816406 94.949219 67.601562 94.949219 C 67.46875 94.949219 67.289062 94.816406 67.199219 94.648438 C 67.113281 94.484375 67.097656 94.351562 67.171875 94.351562 C 67.246094 94.351562 67.425781 94.484375 67.574219 94.648438 M 68.773438 95.25 C 69.015625 95.515625 69.019531 95.550781 68.804688 95.550781 C 68.671875 95.550781 68.488281 95.414062 68.398438 95.25 C 68.3125 95.085938 68.296875 94.949219 68.371094 94.949219 C 68.445312 94.949219 68.625 95.085938 68.773438 95.25 M 81.601562 95.25 C 81.511719 95.414062 81.328125 95.550781 81.195312 95.550781 C 80.980469 95.550781 80.984375 95.515625 81.226562 95.25 C 81.375 95.085938 81.554688 94.949219 81.628906 94.949219 C 81.703125 94.949219 81.6875 95.085938 81.601562 95.25 M 69.976562 95.851562 C 70.214844 96.113281 70.21875 96.148438 70.003906 96.148438 C 69.871094 96.148438 69.6875 96.015625 69.601562 95.851562 C 69.511719 95.683594 69.5 95.550781 69.570312 95.550781 C 69.644531 95.550781 69.824219 95.683594 69.976562 95.851562 M 80.398438 95.851562 C 80.3125 96.015625 80.128906 96.148438 79.996094 96.148438 C 79.78125 96.148438 79.785156 96.113281 80.023438 95.851562 C 80.175781 95.683594 80.355469 95.550781 80.429688 95.550781 C 80.5 95.550781 80.488281 95.683594 80.398438 95.851562 M 72.335938 96.359375 C 72.730469 96.65625 72.660156 96.75 72.035156 96.75 C 71.632812 96.75 71.417969 96.664062 71.285156 96.449219 C 71.054688 96.082031 71.878906 96.011719 72.335938 96.359375 M 78.113281 96.449219 C 77.945312 96.722656 77.398438 96.878906 77.398438 96.652344 C 77.398438 96.507812 77.898438 96.160156 78.113281 96.15625 C 78.265625 96.152344 78.265625 96.210938 78.113281 96.449219 "/>
<path style=" stroke:none;fill-rule:evenodd;fill:rgb(17.254902%,17.254902%,17.254902%);fill-opacity:1;" d="M 48.832031 22.042969 C 48.46875 22.230469 47.941406 22.351562 47.480469 22.355469 C 47.050781 22.359375 46.464844 22.484375 46.125 22.648438 C 45.796875 22.808594 45.324219 22.941406 45.074219 22.945312 C 44.828125 22.949219 44.421875 23.085938 44.175781 23.25 C 43.925781 23.414062 43.613281 23.546875 43.480469 23.550781 C 43.347656 23.550781 43.15625 23.648438 43.058594 23.765625 C 42.960938 23.882812 42.6875 24.023438 42.449219 24.074219 C 42.214844 24.125 41.945312 24.257812 41.855469 24.371094 C 41.761719 24.480469 41.503906 24.617188 41.28125 24.671875 C 41.058594 24.730469 40.753906 24.902344 40.605469 25.0625 C 40.460938 25.21875 40.25 25.351562 40.140625 25.351562 C 40.035156 25.351562 39.824219 25.484375 39.675781 25.648438 C 39.527344 25.816406 39.339844 25.949219 39.261719 25.949219 C 38.878906 25.949219 35.851562 29.355469 35.851562 29.785156 C 35.851562 29.863281 35.714844 30.011719 35.550781 30.113281 C 35.386719 30.21875 35.25 30.460938 35.25 30.652344 C 35.25 30.84375 35.113281 31.125 34.949219 31.273438 C 34.785156 31.425781 34.648438 31.695312 34.648438 31.875 C 34.648438 32.054688 34.515625 32.324219 34.351562 32.476562 C 34.183594 32.625 34.050781 32.917969 34.050781 33.125 C 34.050781 33.332031 33.941406 33.621094 33.8125 33.765625 C 33.675781 33.917969 33.539062 34.425781 33.488281 34.976562 C 33.433594 35.589844 33.320312 35.988281 33.164062 36.101562 C 32.957031 36.253906 32.917969 36.886719 32.878906 40.976562 L 32.832031 45.675781 L 32.355469 46.136719 C 31.105469 47.335938 31.128906 47.246094 31.074219 51 C 31.027344 54.21875 31.144531 55.5 31.488281 55.5 C 31.554688 55.5 31.644531 55.804688 31.6875 56.179688 C 31.730469 56.554688 31.875 56.984375 32.007812 57.128906 C 32.140625 57.277344 32.25 57.503906 32.25 57.636719 C 32.25 57.941406 33.011719 59.441406 33.242188 59.585938 C 33.335938 59.644531 33.464844 59.882812 33.519531 60.109375 C 33.578125 60.339844 33.738281 60.636719 33.875 60.773438 C 34.011719 60.910156 34.242188 61.179688 34.386719 61.375 C 34.53125 61.566406 35.019531 62.195312 35.46875 62.773438 C 35.917969 63.347656 36.328125 63.988281 36.378906 64.195312 C 36.429688 64.40625 36.5625 64.777344 36.671875 65.023438 C 36.785156 65.273438 36.953125 65.726562 37.050781 66.039062 C 37.144531 66.347656 37.277344 66.601562 37.34375 66.601562 C 37.410156 66.601562 37.511719 66.839844 37.566406 67.132812 C 37.621094 67.425781 37.757812 67.699219 37.871094 67.742188 C 37.980469 67.785156 38.117188 67.992188 38.167969 68.199219 C 38.257812 68.5625 38.355469 68.730469 39.121094 69.855469 C 39.300781 70.121094 39.449219 70.378906 39.449219 70.433594 C 39.449219 70.675781 43.800781 74.816406 44.148438 74.90625 C 44.359375 74.957031 44.792969 75.238281 45.105469 75.523438 C 45.417969 75.8125 45.757812 76.050781 45.863281 76.050781 C 45.964844 76.050781 46.304688 76.183594 46.609375 76.351562 C 46.917969 76.515625 47.308594 76.648438 47.476562 76.648438 C 47.644531 76.648438 48.015625 76.773438 48.300781 76.929688 C 48.601562 77.085938 49.335938 77.25 50.019531 77.3125 C 50.679688 77.371094 51.300781 77.488281 51.398438 77.570312 C 52.230469 78.257812 53.175781 76.128906 52.410156 75.285156 C 52.277344 75.136719 52.136719 74.628906 52.089844 74.113281 C 52.046875 73.613281 51.917969 73.125 51.804688 73.03125 C 51.496094 72.777344 51.519531 67.992188 51.828125 67.585938 C 51.949219 67.421875 52.050781 67.078125 52.050781 66.816406 C 52.050781 66.554688 52.183594 66.167969 52.351562 65.960938 C 52.515625 65.75 52.648438 65.453125 52.648438 65.296875 C 52.648438 65.144531 52.785156 64.902344 52.949219 64.761719 C 53.210938 64.535156 53.25 64.316406 53.25 62.996094 C 53.25 61.929688 53.3125 61.390625 53.46875 61.15625 C 53.632812 60.90625 53.707031 60.039062 53.777344 57.574219 C 53.859375 54.777344 53.914062 54.242188 54.160156 53.753906 C 54.320312 53.441406 54.449219 52.9375 54.449219 52.636719 C 54.449219 52.335938 54.550781 52.003906 54.671875 51.902344 C 54.792969 51.800781 54.933594 51.496094 54.984375 51.222656 C 55.09375 50.636719 55.578125 49.648438 56.214844 48.703125 C 56.464844 48.332031 56.714844 47.890625 56.769531 47.71875 C 56.875 47.386719 60.96875 43.199219 61.1875 43.199219 C 61.394531 43.199219 62.550781 42.414062 62.550781 42.273438 C 62.550781 42.207031 62.675781 42.148438 62.828125 42.148438 C 62.984375 42.148438 63.277344 42.019531 63.480469 41.859375 C 63.683594 41.699219 64.035156 41.523438 64.261719 41.464844 C 64.488281 41.40625 64.710938 41.269531 64.753906 41.15625 C 64.796875 41.042969 64.984375 40.949219 65.171875 40.949219 C 65.355469 40.949219 65.671875 40.824219 65.867188 40.671875 C 66.0625 40.519531 66.511719 40.359375 66.859375 40.3125 C 67.207031 40.265625 67.601562 40.121094 67.730469 39.988281 C 67.890625 39.832031 68.238281 39.75 68.753906 39.75 C 69.183594 39.75 69.667969 39.660156 69.828125 39.546875 C 69.992188 39.4375 70.328125 39.296875 70.574219 39.234375 C 70.820312 39.175781 71.109375 39.054688 71.210938 38.96875 C 71.488281 38.738281 71.46875 36.394531 71.1875 36.160156 C 71.070312 36.0625 70.898438 35.652344 70.800781 35.25 C 70.703125 34.847656 70.527344 34.4375 70.410156 34.339844 C 70.296875 34.242188 70.199219 34.082031 70.199219 33.980469 C 70.199219 33.878906 70.066406 33.675781 69.898438 33.523438 C 69.734375 33.375 69.601562 33.167969 69.601562 33.058594 C 69.601562 32.953125 69.371094 32.617188 69.089844 32.308594 C 68.742188 31.929688 68.546875 31.542969 68.480469 31.101562 C 68.425781 30.746094 68.285156 30.355469 68.164062 30.238281 C 68.046875 30.117188 67.949219 29.890625 67.949219 29.734375 C 67.949219 29.3125 67.644531 28.5 67.484375 28.5 C 67.410156 28.5 67.351562 28.414062 67.351562 28.308594 C 67.351562 27.71875 64.457031 24.941406 63.605469 24.714844 C 63.375 24.652344 63.101562 24.5 63 24.375 C 62.898438 24.25 62.695312 24.148438 62.550781 24.148438 C 62.410156 24.148438 62.125 24.019531 61.925781 23.863281 C 61.726562 23.707031 61.246094 23.53125 60.863281 23.472656 C 60.476562 23.414062 60.082031 23.273438 59.988281 23.160156 C 59.890625 23.042969 59.601562 22.949219 59.34375 22.949219 C 59.082031 22.949219 58.617188 22.816406 58.3125 22.648438 C 57.9375 22.449219 57.464844 22.351562 56.898438 22.351562 C 56.300781 22.351562 55.964844 22.273438 55.757812 22.085938 C 55.277344 21.652344 49.660156 21.613281 48.832031 22.042969 M 94.09375 21.910156 C 93.832031 21.988281 93.574219 22.121094 93.523438 22.203125 C 93.472656 22.285156 93.082031 22.351562 92.652344 22.355469 C 92.199219 22.359375 91.625 22.480469 91.273438 22.648438 C 90.945312 22.808594 90.472656 22.941406 90.226562 22.945312 C 89.976562 22.949219 89.574219 23.085938 89.324219 23.25 C 89.078125 23.414062 88.761719 23.546875 88.625 23.550781 C 88.484375 23.550781 88.277344 23.644531 88.164062 23.757812 C 88.050781 23.871094 87.738281 24.011719 87.46875 24.070312 C 87.199219 24.128906 86.945312 24.269531 86.902344 24.378906 C 86.859375 24.492188 86.636719 24.625 86.402344 24.675781 C 86.171875 24.726562 85.863281 24.898438 85.71875 25.058594 C 85.574219 25.21875 85.375 25.351562 85.273438 25.351562 C 85.175781 25.351562 84.972656 25.484375 84.824219 25.648438 C 84.675781 25.816406 84.488281 25.949219 84.40625 25.949219 C 84.199219 25.949219 81.601562 28.570312 81.601562 28.78125 C 81.601562 28.875 81.527344 28.949219 81.441406 28.949219 C 81.355469 28.949219 81.191406 29.175781 81.074219 29.449219 C 80.960938 29.722656 80.761719 30.035156 80.632812 30.144531 C 80.503906 30.25 80.398438 30.453125 80.398438 30.59375 C 80.398438 30.738281 80.269531 31.003906 80.109375 31.191406 C 79.949219 31.375 79.777344 31.71875 79.726562 31.953125 C 79.671875 32.1875 79.535156 32.460938 79.414062 32.558594 C 79.296875 32.65625 79.199219 32.863281 79.199219 33.019531 C 79.199219 33.175781 79.066406 33.554688 78.898438 33.859375 C 78.730469 34.179688 78.601562 34.707031 78.601562 35.085938 C 78.601562 35.503906 78.503906 35.855469 78.34375 36.035156 C 77.792969 36.640625 77.902344 38.894531 78.492188 39.160156 C 78.675781 39.246094 78.992188 39.410156 79.199219 39.527344 C 79.410156 39.652344 79.96875 39.746094 80.480469 39.746094 C 81.0625 39.75 81.503906 39.835938 81.726562 39.988281 C 81.914062 40.121094 82.46875 40.265625 82.953125 40.3125 C 83.550781 40.363281 83.921875 40.480469 84.09375 40.671875 C 84.234375 40.824219 84.476562 40.949219 84.636719 40.949219 C 84.796875 40.949219 85.097656 41.085938 85.308594 41.25 C 85.519531 41.414062 85.789062 41.550781 85.910156 41.550781 C 86.027344 41.550781 86.300781 41.683594 86.507812 41.851562 C 86.71875 42.015625 86.980469 42.148438 87.085938 42.148438 C 87.195312 42.148438 87.539062 42.386719 87.855469 42.675781 C 88.167969 42.960938 88.507812 43.199219 88.605469 43.199219 C 88.855469 43.199219 90.898438 45.238281 90.898438 45.492188 C 90.898438 45.605469 91.097656 45.917969 91.335938 46.183594 C 91.578125 46.453125 91.851562 46.886719 91.949219 47.148438 C 92.042969 47.410156 92.214844 47.828125 92.324219 48.074219 C 92.4375 48.324219 92.566406 48.769531 92.617188 49.070312 C 92.667969 49.375 92.839844 49.789062 93.003906 49.996094 C 93.167969 50.203125 93.300781 50.449219 93.300781 50.539062 C 93.300781 50.632812 93.398438 50.746094 93.519531 50.792969 C 93.636719 50.839844 93.8125 51.105469 93.90625 51.386719 C 93.996094 51.667969 94.128906 51.898438 94.199219 51.898438 C 94.269531 51.898438 94.371094 52.097656 94.421875 52.339844 C 94.476562 52.582031 94.609375 52.855469 94.71875 52.945312 C 94.828125 53.035156 94.960938 53.34375 95.015625 53.625 C 95.070312 53.910156 95.199219 54.195312 95.308594 54.257812 C 95.417969 54.324219 95.546875 54.769531 95.59375 55.253906 C 95.640625 55.738281 95.789062 56.25 95.921875 56.398438 C 96.125 56.621094 96.179688 57.261719 96.257812 60.371094 C 96.324219 63.113281 96.394531 64.097656 96.535156 64.148438 C 96.636719 64.1875 96.765625 64.457031 96.820312 64.742188 C 96.871094 65.03125 97.015625 65.304688 97.132812 65.347656 C 97.253906 65.394531 97.351562 65.613281 97.351562 65.832031 C 97.351562 66.054688 97.453125 66.382812 97.582031 66.566406 C 98.175781 67.410156 98.183594 73.378906 97.59375 74.515625 C 97.457031 74.773438 97.351562 75.1875 97.351562 75.433594 C 97.351562 75.683594 97.273438 76.058594 97.175781 76.269531 C 96.835938 77.011719 97.695312 77.925781 98.386719 77.558594 C 98.535156 77.476562 99.265625 77.351562 100.011719 77.277344 C 100.824219 77.195312 101.503906 77.042969 101.714844 76.894531 C 101.910156 76.761719 102.222656 76.648438 102.414062 76.648438 C 102.605469 76.648438 102.796875 76.554688 102.839844 76.441406 C 102.882812 76.324219 103.15625 76.183594 103.445312 76.132812 C 103.730469 76.078125 104 75.941406 104.046875 75.824219 C 104.089844 75.710938 104.3125 75.578125 104.539062 75.527344 C 104.941406 75.4375 105.140625 75.316406 106.046875 74.585938 C 106.277344 74.402344 106.527344 74.25 106.601562 74.25 C 106.949219 74.25 109.949219 71.058594 109.949219 70.6875 C 109.949219 70.617188 110.214844 70.269531 110.539062 69.914062 C 110.863281 69.554688 111.167969 69.101562 111.21875 68.902344 C 111.265625 68.703125 111.441406 68.410156 111.605469 68.246094 C 111.765625 68.082031 111.898438 67.84375 111.898438 67.710938 C 111.898438 67.578125 112.035156 67.300781 112.199219 67.089844 C 112.363281 66.882812 112.5 66.574219 112.5 66.410156 C 112.5 66.242188 112.59375 66.03125 112.707031 65.941406 C 112.820312 65.851562 112.980469 65.503906 113.070312 65.175781 C 113.386719 63.980469 113.703125 63.300781 114.183594 62.792969 C 115.164062 61.757812 115.800781 60.972656 115.800781 60.800781 C 115.800781 60.703125 115.957031 60.433594 116.144531 60.199219 C 116.589844 59.652344 117.75 57.378906 117.75 57.050781 C 117.75 56.914062 117.855469 56.679688 117.988281 56.535156 C 118.117188 56.390625 118.265625 55.980469 118.3125 55.625 C 118.359375 55.265625 118.503906 54.808594 118.636719 54.605469 C 119.007812 54.035156 118.988281 48.757812 118.613281 48.34375 C 118.46875 48.183594 118.351562 47.902344 118.351562 47.71875 C 118.351562 47.3125 117.949219 46.5 117.746094 46.5 C 117.664062 46.5 117.601562 46.402344 117.601562 46.28125 C 117.601562 46.164062 117.503906 46.011719 117.386719 45.945312 C 117.210938 45.847656 117.160156 45.171875 117.121094 42.351562 C 117.082031 39.300781 117.042969 38.847656 116.8125 38.589844 C 116.625 38.382812 116.550781 38.046875 116.550781 37.394531 C 116.550781 36.71875 116.476562 36.394531 116.25 36.109375 C 116.085938 35.898438 115.949219 35.589844 115.949219 35.421875 C 115.949219 35.0625 115.753906 34.585938 115.347656 33.976562 C 115.183594 33.726562 114.949219 33.324219 114.828125 33.074219 C 114.707031 32.828125 114.40625 32.429688 114.160156 32.195312 C 113.851562 31.898438 113.679688 31.554688 113.613281 31.097656 C 113.558594 30.734375 113.421875 30.34375 113.308594 30.226562 C 113.191406 30.113281 113.101562 29.890625 113.101562 29.730469 C 113.101562 29.222656 112.578125 28.199219 111.976562 27.523438 C 111.808594 27.339844 111.507812 26.949219 111.300781 26.652344 C 111.09375 26.359375 110.757812 26.042969 110.550781 25.945312 C 110.1875 25.777344 109.914062 25.558594 109.386719 25.011719 C 109.246094 24.867188 109.023438 24.75 108.886719 24.75 C 108.75 24.75 108.46875 24.613281 108.257812 24.449219 C 108.050781 24.285156 107.792969 24.148438 107.695312 24.148438 C 107.59375 24.148438 107.300781 24.023438 107.042969 23.867188 C 106.785156 23.710938 106.292969 23.535156 105.945312 23.480469 C 105.601562 23.421875 105.238281 23.28125 105.140625 23.164062 C 105.042969 23.046875 104.753906 22.949219 104.492188 22.945312 C 104.234375 22.941406 103.753906 22.808594 103.425781 22.648438 C 103.066406 22.476562 102.5 22.359375 102.011719 22.355469 C 101.453125 22.351562 101.109375 22.269531 100.910156 22.085938 C 100.574219 21.785156 94.996094 21.640625 94.09375 21.910156 M 37.050781 69.855469 C 36.925781 69.902344 36.722656 70.023438 36.601562 70.128906 C 36.476562 70.230469 36.160156 70.363281 35.898438 70.417969 C 35.640625 70.472656 35.390625 70.605469 35.351562 70.714844 C 35.308594 70.820312 34.953125 70.945312 34.558594 70.988281 C 34.15625 71.035156 33.765625 71.175781 33.667969 71.308594 C 33.570312 71.441406 33.324219 71.550781 33.121094 71.550781 C 32.914062 71.550781 32.632812 71.675781 32.492188 71.832031 C 32.351562 71.984375 31.964844 72.148438 31.632812 72.195312 C 31.300781 72.238281 30.910156 72.382812 30.765625 72.511719 C 30.621094 72.644531 30.347656 72.75 30.160156 72.75 C 29.976562 72.75 29.652344 72.886719 29.441406 73.050781 C 29.230469 73.214844 28.96875 73.351562 28.859375 73.351562 C 28.671875 73.351562 28.296875 73.503906 26.609375 74.269531 C 26.269531 74.425781 25.921875 74.550781 25.839844 74.550781 C 25.753906 74.550781 25.609375 74.644531 25.511719 74.757812 C 25.417969 74.875 25.113281 75.011719 24.835938 75.0625 C 24.554688 75.117188 24.292969 75.25 24.25 75.359375 C 24.207031 75.472656 23.9375 75.605469 23.652344 75.660156 C 23.363281 75.714844 23.089844 75.859375 23.042969 75.980469 C 22.996094 76.101562 22.832031 76.199219 22.675781 76.199219 C 22.519531 76.199219 22.21875 76.335938 22.007812 76.5 C 21.800781 76.664062 21.519531 76.800781 21.390625 76.800781 C 21.257812 76.800781 21.023438 76.929688 20.863281 77.085938 C 20.707031 77.242188 20.421875 77.417969 20.226562 77.480469 C 20.035156 77.539062 19.757812 77.695312 19.617188 77.832031 C 19.476562 77.964844 19.1875 78.210938 18.976562 78.375 C 18.761719 78.539062 18.304688 78.925781 17.957031 79.234375 C 17.609375 79.542969 17.277344 79.796875 17.222656 79.796875 C 17.066406 79.800781 16.050781 80.792969 16.050781 80.941406 C 16.050781 81.015625 15.75 81.414062 15.382812 81.824219 C 15.011719 82.238281 14.625 82.675781 14.519531 82.796875 C 14.140625 83.226562 13.503906 84.226562 13.503906 84.394531 C 13.5 84.492188 13.40625 84.605469 13.289062 84.648438 C 13.171875 84.695312 13.03125 84.941406 12.976562 85.199219 C 12.917969 85.457031 12.78125 85.707031 12.671875 85.746094 C 12.558594 85.789062 12.421875 86.039062 12.363281 86.300781 C 12.308594 86.5625 12.132812 86.9375 11.980469 87.132812 C 11.828125 87.328125 11.699219 87.617188 11.699219 87.769531 C 11.699219 87.925781 11.636719 88.050781 11.558594 88.050781 C 11.484375 88.050781 11.375 88.203125 11.320312 88.386719 C 11.265625 88.574219 11.09375 88.996094 10.945312 89.324219 C 10.792969 89.65625 10.628906 90.171875 10.582031 90.472656 C 10.53125 90.773438 10.394531 91.101562 10.269531 91.203125 C 10.144531 91.308594 10.050781 91.640625 10.050781 91.992188 C 10.050781 92.351562 9.945312 92.714844 9.796875 92.882812 C 9.636719 93.058594 9.519531 93.503906 9.480469 94.09375 C 9.441406 94.664062 9.320312 95.132812 9.171875 95.304688 C 8.960938 95.539062 8.917969 96.101562 8.878906 99.128906 C 8.828125 103.003906 8.886719 103.402344 9.550781 103.566406 C 9.785156 103.625 10.097656 103.804688 10.242188 103.960938 C 10.390625 104.121094 10.65625 104.25 10.832031 104.25 C 11.007812 104.25 11.269531 104.355469 11.414062 104.488281 C 11.558594 104.617188 11.96875 104.761719 12.324219 104.808594 C 12.683594 104.851562 13.085938 104.988281 13.226562 105.105469 C 13.363281 105.226562 13.769531 105.363281 14.125 105.40625 C 14.484375 105.453125 14.886719 105.585938 15.023438 105.703125 C 15.15625 105.820312 15.664062 105.957031 16.148438 106.003906 C 16.628906 106.050781 17.132812 106.179688 17.261719 106.292969 C 17.390625 106.40625 17.929688 106.542969 18.460938 106.59375 C 18.992188 106.648438 19.527344 106.777344 19.648438 106.882812 C 19.773438 106.988281 20.449219 107.121094 21.148438 107.175781 C 21.851562 107.230469 22.640625 107.371094 22.90625 107.492188 C 23.167969 107.609375 24.046875 107.75 24.855469 107.800781 C 25.664062 107.855469 26.460938 107.984375 26.625 108.09375 C 26.828125 108.222656 27.632812 108.300781 29.078125 108.332031 L 31.230469 108.375 L 31.652344 107.871094 C 31.882812 107.597656 32.117188 107.140625 32.167969 106.859375 C 32.21875 106.578125 32.328125 106.351562 32.402344 106.351562 C 32.480469 106.351562 32.589844 106.164062 32.644531 105.9375 C 32.699219 105.710938 32.871094 105.363281 33.023438 105.167969 C 33.175781 104.96875 33.300781 104.710938 33.300781 104.589844 C 33.300781 104.472656 33.433594 104.199219 33.601562 103.992188 C 33.765625 103.78125 33.898438 103.5 33.898438 103.363281 C 33.898438 103.226562 34.035156 103 34.199219 102.859375 C 34.363281 102.71875 34.5 102.5 34.5 102.375 C 34.5 102.253906 34.5625 102.148438 34.640625 102.148438 C 34.714844 102.148438 34.820312 102.027344 34.867188 101.875 C 34.914062 101.722656 35.191406 101.335938 35.480469 101.011719 C 35.769531 100.6875 36.1875 100.15625 36.410156 99.824219 C 36.632812 99.496094 37.207031 98.824219 37.683594 98.335938 C 38.160156 97.847656 38.550781 97.398438 38.550781 97.339844 C 38.550781 97.28125 38.703125 97.191406 38.886719 97.144531 C 39.074219 97.097656 39.480469 96.820312 39.796875 96.527344 C 40.109375 96.238281 40.433594 96 40.511719 96 C 40.59375 96 40.699219 95.894531 40.746094 95.769531 C 40.796875 95.644531 41.046875 95.4375 41.304688 95.3125 C 42.183594 94.894531 42.601562 94.632812 42.601562 94.507812 C 42.601562 94.4375 42.785156 94.335938 43.011719 94.28125 C 43.238281 94.222656 43.527344 94.089844 43.648438 93.980469 C 43.773438 93.875 44.042969 93.734375 44.25 93.671875 C 44.457031 93.609375 44.785156 93.433594 44.984375 93.28125 C 45.179688 93.125 45.46875 93 45.625 93 C 45.78125 93 45.945312 92.90625 45.988281 92.789062 C 46.035156 92.675781 46.304688 92.535156 46.59375 92.480469 C 46.878906 92.425781 47.152344 92.285156 47.199219 92.167969 C 47.246094 92.046875 47.445312 91.949219 47.640625 91.949219 C 47.839844 91.949219 48.136719 91.816406 48.300781 91.648438 C 48.464844 91.484375 48.734375 91.351562 48.898438 91.351562 C 49.066406 91.351562 49.324219 91.226562 49.476562 91.074219 C 49.628906 90.921875 50.039062 90.757812 50.390625 90.710938 C 50.738281 90.664062 51.140625 90.519531 51.285156 90.386719 C 51.429688 90.257812 51.691406 90.148438 51.863281 90.148438 C 52.035156 90.148438 52.285156 90.042969 52.417969 89.910156 C 52.550781 89.777344 52.941406 89.632812 53.292969 89.589844 C 53.640625 89.546875 54.027344 89.421875 54.148438 89.316406 C 54.273438 89.210938 54.578125 89.074219 54.824219 89.015625 C 55.074219 88.957031 55.375 88.828125 55.5 88.722656 C 55.625 88.621094 55.992188 88.492188 56.316406 88.433594 C 56.644531 88.375 57.074219 88.195312 57.273438 88.039062 C 57.476562 87.878906 57.722656 87.75 57.820312 87.75 C 58.480469 87.75 58.691406 86.425781 58.132812 85.808594 C 58.003906 85.667969 57.898438 85.4375 57.898438 85.292969 C 57.898438 85.050781 57.816406 84.898438 57.027344 83.742188 C 56.847656 83.480469 56.699219 83.191406 56.699219 83.101562 C 56.699219 83.011719 56.601562 82.902344 56.480469 82.855469 C 56.363281 82.8125 56.195312 82.558594 56.109375 82.300781 C 56.019531 82.039062 55.714844 81.558594 55.425781 81.234375 C 55.136719 80.910156 54.898438 80.597656 54.898438 80.535156 C 54.898438 80.359375 54.105469 79.199219 53.984375 79.199219 C 53.925781 79.199219 53.828125 78.992188 53.773438 78.742188 C 53.636719 78.117188 53.246094 78 51.320312 78 C 50.007812 78 49.605469 77.945312 49.125 77.699219 C 48.800781 77.535156 48.28125 77.398438 47.96875 77.398438 C 47.601562 77.398438 47.292969 77.292969 47.101562 77.101562 C 46.933594 76.933594 46.671875 76.800781 46.519531 76.800781 C 46.363281 76.800781 46.15625 76.703125 46.058594 76.585938 C 45.960938 76.464844 45.675781 76.324219 45.429688 76.269531 C 45.183594 76.214844 44.945312 76.082031 44.902344 75.96875 C 44.859375 75.859375 44.621094 75.722656 44.375 75.667969 C 44.128906 75.617188 43.699219 75.359375 43.425781 75.097656 C 43.148438 74.835938 42.765625 74.503906 42.574219 74.355469 C 42.382812 74.207031 42.023438 73.921875 41.773438 73.71875 C 41.527344 73.515625 41.273438 73.351562 41.210938 73.351562 C 41.046875 73.351562 40.210938 72.40625 40.203125 72.214844 C 40.203125 72.128906 39.964844 71.800781 39.675781 71.484375 C 39.386719 71.171875 39.148438 70.878906 39.148438 70.835938 C 39.148438 70.289062 37.707031 69.617188 37.050781 69.855469 M 111.453125 69.882812 C 111.226562 69.945312 111.019531 70.160156 110.925781 70.417969 C 110.800781 70.773438 109.167969 72.671875 108.480469 73.257812 C 108.375 73.351562 107.917969 73.777344 107.46875 74.210938 C 107.019531 74.640625 106.492188 75.035156 106.304688 75.082031 C 106.117188 75.128906 105.714844 75.394531 105.410156 75.671875 C 105.109375 75.945312 104.664062 76.21875 104.417969 76.269531 C 104.175781 76.324219 103.941406 76.457031 103.902344 76.5625 C 103.859375 76.667969 103.535156 76.804688 103.179688 76.859375 C 102.824219 76.917969 102.429688 77.054688 102.304688 77.164062 C 102.179688 77.269531 101.78125 77.398438 101.425781 77.441406 C 101.070312 77.488281 100.660156 77.632812 100.515625 77.761719 C 100.304688 77.949219 99.890625 78 98.511719 78 L 96.769531 78 L 96.257812 78.488281 C 95.972656 78.753906 95.691406 79.136719 95.628906 79.335938 C 95.566406 79.53125 95.304688 79.910156 95.046875 80.175781 C 94.546875 80.6875 94.355469 80.953125 93.957031 81.675781 C 93.820312 81.921875 93.617188 82.179688 93.503906 82.246094 C 93.390625 82.3125 93.300781 82.433594 93.300781 82.511719 C 93.300781 82.65625 93.191406 82.835938 92.429688 83.957031 C 92.246094 84.222656 92.101562 84.566406 92.101562 84.722656 C 92.101562 84.875 91.964844 85.125 91.800781 85.273438 C 91.058594 85.945312 91.519531 87.898438 92.414062 87.898438 C 92.550781 87.898438 92.742188 87.996094 92.84375 88.117188 C 92.941406 88.234375 93.214844 88.375 93.449219 88.425781 C 93.6875 88.476562 93.953125 88.609375 94.042969 88.71875 C 94.136719 88.828125 94.503906 88.960938 94.867188 89.015625 C 95.230469 89.070312 95.605469 89.210938 95.707031 89.332031 C 95.804688 89.453125 96.054688 89.550781 96.257812 89.550781 C 96.460938 89.550781 96.800781 89.683594 97.007812 89.851562 C 97.21875 90.015625 97.574219 90.148438 97.800781 90.148438 C 98.027344 90.148438 98.296875 90.253906 98.402344 90.375 C 98.503906 90.5 98.855469 90.644531 99.183594 90.699219 C 99.507812 90.75 99.808594 90.878906 99.851562 90.988281 C 99.890625 91.09375 100.140625 91.226562 100.398438 91.28125 C 100.660156 91.339844 100.984375 91.480469 101.117188 91.597656 C 101.253906 91.714844 101.625 91.855469 101.945312 91.902344 C 102.261719 91.953125 102.6875 92.121094 102.882812 92.273438 C 103.078125 92.425781 103.339844 92.550781 103.460938 92.550781 C 103.578125 92.550781 103.847656 92.683594 104.058594 92.851562 C 104.269531 93.015625 104.570312 93.148438 104.726562 93.148438 C 104.882812 93.148438 105.046875 93.25 105.09375 93.371094 C 105.140625 93.492188 105.410156 93.636719 105.691406 93.6875 C 105.96875 93.742188 106.199219 93.839844 106.199219 93.910156 C 106.199219 94.035156 106.617188 94.292969 107.488281 94.710938 C 107.742188 94.832031 108.035156 95.039062 108.144531 95.167969 C 108.25 95.296875 108.449219 95.398438 108.585938 95.398438 C 108.726562 95.398438 109.234375 95.769531 109.71875 96.226562 C 110.203125 96.679688 110.617188 97.050781 110.644531 97.050781 C 110.683594 97.050781 112.027344 98.433594 113.726562 100.222656 C 114.03125 100.542969 114.328125 100.957031 114.382812 101.140625 C 114.484375 101.464844 114.546875 101.554688 115.191406 102.261719 C 115.363281 102.449219 115.5 102.703125 115.5 102.824219 C 115.5 102.949219 115.636719 103.183594 115.800781 103.351562 C 115.964844 103.515625 116.101562 103.742188 116.101562 103.855469 C 116.101562 103.96875 116.230469 104.226562 116.390625 104.429688 C 116.550781 104.632812 116.726562 104.980469 116.78125 105.199219 C 116.839844 105.421875 116.941406 105.636719 117.011719 105.683594 C 117.082031 105.726562 117.214844 106.03125 117.300781 106.355469 C 117.390625 106.683594 117.523438 106.949219 117.597656 106.949219 C 117.675781 106.949219 117.78125 107.183594 117.835938 107.46875 C 117.996094 108.328125 118.152344 108.378906 120.574219 108.339844 C 122.210938 108.3125 122.835938 108.246094 123.09375 108.074219 C 123.289062 107.949219 123.785156 107.847656 124.230469 107.847656 C 125.226562 107.84375 127.050781 107.585938 127.261719 107.417969 C 127.351562 107.347656 127.921875 107.246094 128.535156 107.191406 C 129.144531 107.136719 129.851562 107 130.109375 106.882812 C 130.363281 106.769531 130.980469 106.628906 131.476562 106.574219 C 131.96875 106.519531 132.476562 106.386719 132.601562 106.28125 C 132.722656 106.175781 133.21875 106.050781 133.703125 106.003906 C 134.1875 105.957031 134.699219 105.8125 134.839844 105.683594 C 134.980469 105.554688 135.265625 105.449219 135.46875 105.449219 C 135.671875 105.449219 136.101562 105.316406 136.425781 105.148438 C 136.75 104.984375 137.152344 104.851562 137.320312 104.851562 C 137.488281 104.847656 137.828125 104.722656 138.078125 104.574219 C 138.328125 104.421875 138.777344 104.25 139.082031 104.195312 C 139.457031 104.121094 139.875 103.851562 140.40625 103.328125 L 141.183594 102.566406 L 141.125 99.667969 C 141.074219 97.195312 141.027344 96.730469 140.808594 96.488281 C 140.625 96.285156 140.550781 95.941406 140.550781 95.3125 C 140.546875 94.679688 140.460938 94.296875 140.25 93.976562 C 140.078125 93.714844 139.953125 93.269531 139.949219 92.921875 C 139.949219 92.589844 139.816406 92.070312 139.648438 91.761719 C 139.484375 91.453125 139.351562 91.011719 139.351562 90.777344 C 139.351562 90.546875 139.25 90.226562 139.128906 90.066406 C 139.003906 89.90625 138.832031 89.523438 138.746094 89.210938 C 138.660156 88.902344 138.523438 88.648438 138.445312 88.648438 C 138.363281 88.648438 138.300781 88.535156 138.300781 88.394531 C 138.300781 88.074219 136.9375 85.3125 136.703125 85.164062 C 136.609375 85.105469 136.488281 84.867188 136.429688 84.640625 C 136.371094 84.414062 136.230469 84.125 136.113281 84 C 135.664062 83.523438 135.148438 82.824219 135.148438 82.699219 C 135.148438 82.625 134.746094 82.128906 134.25 81.601562 C 133.753906 81.070312 133.351562 80.582031 133.351562 80.519531 C 133.351562 80.453125 133.253906 80.398438 133.136719 80.398438 C 133.015625 80.398438 132.878906 80.265625 132.824219 80.101562 C 132.773438 79.933594 132.664062 79.800781 132.585938 79.800781 C 132.507812 79.800781 132.191406 79.53125 131.890625 79.199219 C 131.585938 78.871094 131.257812 78.601562 131.160156 78.601562 C 131.0625 78.601562 130.941406 78.5 130.894531 78.375 C 130.847656 78.25 130.707031 78.148438 130.578125 78.148438 C 130.453125 78.148438 130.226562 78.03125 130.078125 77.886719 C 129.589844 77.417969 128.890625 76.964844 128.5 76.867188 C 128.292969 76.816406 128.085938 76.683594 128.046875 76.574219 C 128.003906 76.46875 127.769531 76.332031 127.519531 76.28125 C 127.273438 76.226562 126.992188 76.085938 126.894531 75.96875 C 126.796875 75.851562 126.496094 75.714844 126.21875 75.664062 C 125.945312 75.613281 125.683594 75.476562 125.640625 75.359375 C 125.597656 75.246094 125.4375 75.148438 125.292969 75.144531 C 125.144531 75.144531 124.6875 74.972656 124.273438 74.773438 C 123.863281 74.570312 123.378906 74.402344 123.203125 74.402344 C 123.027344 74.402344 122.84375 74.304688 122.800781 74.1875 C 122.757812 74.074219 122.5 73.929688 122.230469 73.871094 C 121.960938 73.8125 121.648438 73.671875 121.535156 73.554688 C 121.421875 73.441406 121.191406 73.351562 121.027344 73.351562 C 120.859375 73.351562 120.550781 73.214844 120.339844 73.050781 C 120.132812 72.886719 119.742188 72.75 119.476562 72.75 C 119.1875 72.75 118.890625 72.632812 118.726562 72.449219 C 118.574219 72.285156 118.269531 72.148438 118.042969 72.148438 C 117.816406 72.148438 117.59375 72.050781 117.550781 71.933594 C 117.503906 71.8125 117.210938 71.667969 116.898438 71.609375 C 116.585938 71.550781 116.128906 71.378906 115.878906 71.226562 C 115.628906 71.074219 115.246094 70.949219 115.027344 70.949219 C 114.808594 70.949219 114.59375 70.851562 114.550781 70.734375 C 114.503906 70.613281 114.210938 70.46875 113.898438 70.410156 C 113.585938 70.351562 113.128906 70.179688 112.878906 70.027344 C 112.40625 69.742188 112.085938 69.707031 111.453125 69.882812 M 118.3125 121.660156 C 118.023438 121.832031 117.945312 122.308594 118.226562 122.214844 C 118.445312 122.144531 118.882812 121.5 118.707031 121.503906 C 118.632812 121.507812 118.457031 121.578125 118.3125 121.660156 M 117.472656 122.53125 C 117.113281 122.84375 117.050781 123.027344 117.339844 122.917969 C 117.515625 122.851562 117.972656 122.25 117.847656 122.25 C 117.820312 122.25 117.652344 122.375 117.472656 122.53125 "/>
</g>
</svg>
