<?xml version="1.0" ?><!DOCTYPE svg  PUBLIC '-//W3C//DTD SVG 1.1//EN'  'http://www.w3.org/Graphics/SVG/1.1/DTD/svg11.dtd'><svg id="Layer_1" style="enable-background:new 0 0 512 512;" version="1.1" viewBox="0 0 512 512" xml:space="preserve" xmlns="http://www.w3.org/2000/svg" xmlns:xlink="http://www.w3.org/1999/xlink"><style type="text/css">
	.st0{fill:#F3AD2E;}
</style><g><path class="st0" d="M256,28C130.1,28,28,130.1,28,256s102.1,228,228,228s228-102.1,228-228S381.9,28,256,28z M256,122    c36.7,0,66.5,29.8,66.5,66.5S292.7,255,256,255s-66.5-29.8-66.5-66.5S219.3,122,256,122z M363.5,351.2c0,21.3-17.4,38.7-38.7,38.7    H187.2c-21.3,0-38.7-17.4-38.7-38.7v-82c0-21.3,17.4-38.7,38.7-38.7h3.2c13.5,22,37.8,36.7,65.5,36.7s52-14.7,65.5-36.7h3.2    c21.3,0,38.7,17.4,38.7,38.7V351.2z"/></g></svg>