<?xml version="1.0" encoding="utf-8"?>
<!-- Generator: Adobe Illustrator 21.1.0, SVG Export Plug-In . SVG Version: 6.00 Build 0)  -->
<svg version="1.1" id="Vrstva_1" xmlns="http://www.w3.org/2000/svg" xmlns:xlink="http://www.w3.org/1999/xlink" x="0px" y="0px"
	 viewBox="0 0 739 204" style="enable-background:new 0 0 739 204;" xml:space="preserve">
<style type="text/css">
	.st0{fill:#FCFCFC;}
	.st1{fill:#F3D501;}
	.st2{fill:#010101;}
</style>
<g>
	<path class="st0" d="M12,118.5c0-14.3,0.4-28.7-0.1-43C11.4,62,24.1,57,34.5,58.4c3.5,0.5,2.2,4.1,2.4,6.2
		c0.8,7.6,2.9,14.4,7.7,20.5c7.6,9.8,18.2,14.9,29.6,18.9c13.6,4.8,27.9,6.5,41.6,10.9c4.1,1.3,8,2.9,11.5,5.2
		c6.1,3.9,4.7,17-2.1,20.9c-13.5,7.7-40,7.8-51.2-6.4c-2.2-2.8-3.6-5.9-4.7-9c-1-2.7-2.4-4-5.2-4c-9.2,0-18.3,0.1-27.5,0
		c-3.6,0-4.5,1.6-4.1,5c2.7,23.1,14.9,39,36.2,48.2c1.2,0.5,3.7,0,3.1,2.3c-0.5,1.9-2.5,0.9-3.8,0.9c-13,0.1-26,0.1-39,0
		c-10.3-0.1-17-6.9-17-17C12,146.8,12,132.6,12,118.5z"/>
	<path class="st1" d="M124.8,12.2c16.1,0,32.2-0.3,48.3,0.1c9.5,0.2,16.7,8.2,16.7,17.7c0.1,27.8,0.1,55.7,0,83.5
		c0,9.8-8.2,17.5-18,17.5c-2.7,0-3.4-1-3.4-3.5c0.1-22.8-12.2-36.6-32.4-44.8c-14.6-5.9-30-8.7-45.2-12.5c-3.8-0.9-7.3-2.2-10.8-3.9
		c-6.8-3.3-7.6-10.4-1.7-15.3c3.4-2.8,7.6-4.1,11.9-4.8c5.1-0.8,10.3-1,15.4-0.2c9.1,1.2,16,5.4,19.6,14.2c1.4,3.4,3.5,4.9,7.2,4.8
		c8.3-0.2,16.7-0.2,25,0c4,0.1,5.7-1.4,5.4-5.6c-1.3-19.7-11.7-33.1-28.7-42c-3-1.6-6.3-2.8-9.5-4.2
		C124.7,12.8,124.8,12.5,124.8,12.2z"/>
	<path class="st0" d="M375.6,71.3c0-14.5,0.1-29-0.1-43.5c0-3,0.7-3.9,3.8-3.9c13.5,0.2,27,0,40.5,0.1c22.7,0.1,36.6,24.2,25.2,43.8
		c-1.7,2.9-1.7,4.7,0.1,7.4c2.4,3.6,3.8,7.8,3.8,12.2c0.1,9.5,0,19,0.2,28.5c0,2.4-0.6,3.4-3.1,3c-0.2,0-0.3,0-0.5,0
		c-6-0.1-13.8,2.1-17.4-0.8c-3.7-3-0.9-11.2-1.1-17.1c-0.2-3.5,0.1-7,0-10.5c-0.2-5.7-2.7-8.3-8.3-8.4c-5.7-0.1-11.3,0.2-17-0.1
		c-3.1-0.1-4,0.7-3.9,3.9c0.2,9.8,0,19.7,0.1,29.5c0,2.7-0.5,3.9-3.5,3.7c-5-0.2-10-0.3-15,0c-3.7,0.3-3.9-1.4-3.9-4.3
		C375.6,100.3,375.6,85.8,375.6,71.3z M409.5,46.1c-3,0-6,0.1-9,0c-1.8-0.1-3.1,0.4-2.6,2.4c0.9,3.8-2,8.1,1.5,11.5
		c0.2,0.2,0.6,0,1,0c6.3,0,12.7,0.1,19-0.1c4.6-0.2,7.6-3.2,7.5-7.1c-0.1-3.8-3.2-6.5-7.9-6.7C415.8,46,412.7,46.1,409.5,46.1z"/>
	<path class="st0" d="M363,71.8c0,6.2,0.1,12.3,0,18.5c-0.3,16.1-13,28.6-29.1,28.7c-5.2,0-10.3,0-15.5,0
		c-14.8-0.1-27.4-11.2-28.5-26.1c-1-14.3-1-28.7,0-42.9c1-14.8,13.6-25.9,28.5-26c5.3,0,10.7-0.1,16,0c15.5,0.2,28.2,12.8,28.5,28.3
		C363.1,58.8,363,65.3,363,71.8z M311.8,71.2c0,6-0.1,12,0,18c0.1,4.8,2.5,7.5,7.3,7.7c4.8,0.3,9.7,0.3,14.5,0
		c4.4-0.3,7.1-3,7.2-7.4c0.2-12,0.1-24,0-35.9c-0.1-4.5-2.7-7.1-7.2-7.4c-4.8-0.2-9.7-0.2-14.5,0c-4.8,0.2-7.2,2.8-7.3,7.6
		C311.8,59.6,311.8,65.4,311.8,71.2z"/>
	<path class="st0" d="M202.6,71.2c0-14.3,0.1-28.7-0.1-43c0-2.9,0.2-4.4,3.9-4.3c13.8,0.3,27.7,0,41.5,0.1
		c15.2,0.2,27.9,13,28.1,28.1c0.2,15.9-12,29.3-27.4,29.8c-6.5,0.2-13,0.3-19.5,0c-3.7-0.2-4.4,1.1-4.3,4.5c0.2,9.7,0,19.3,0.1,29
		c0.1,2.9-0.8,3.7-3.6,3.6c-5-0.2-10-0.3-15,0c-3.2,0.2-3.8-0.9-3.8-3.9C202.6,100.5,202.6,85.9,202.6,71.2z M236.6,60
		C236.6,60,236.6,60,236.6,60c3.3-0.1,6.7,0.1,10-0.1c4.1-0.3,6.9-2.4,7.3-6.8c0.3-3.8-2.9-6.9-7.5-7c-6.2-0.2-12.3,0.1-18.5-0.1
		c-2.5-0.1-3,0.9-3,3.2C224.4,60,224.3,60,235.1,60C235.6,60,236.1,60,236.6,60z"/>
	<path class="st0" d="M576.6,83.5c0-9.5,0.2-19,0-28.5c-0.5-20.2,16.1-32.1,31.4-31.2c12.8,0.8,25.6,0.2,38.5,0.1
		c2.7,0,3.8,0.6,3.7,3.5c-0.2,5-0.3,10,0,15c0.2,3.3-1.1,3.7-4,3.7c-12.5-0.1-25-0.1-37.5-0.1c-8.2,0-11.4,4.2-9.8,12.2
		c0.6,2.8,2.6,1.6,3.9,1.6c14.5,0.1,29,0.1,43.5,0c2.9,0,4.1,0.5,3.9,3.8c-0.3,5-0.3,10,0,15c0.2,3-1,3.5-3.7,3.5
		c-14.5-0.1-29,0-43.5-0.1c-3.3,0-4.2,0.9-4.1,4.1c0.2,9.8,0,19.7,0.1,29.5c0,2.5-0.5,3.5-3.3,3.4c-5.2-0.2-10.3-0.2-15.5,0
		c-2.8,0.1-3.7-0.6-3.6-3.5C576.7,104.9,576.6,94.2,576.6,83.5z"/>
	<path class="st0" d="M506.9,82.7c0,10.8-0.1,21.6,0.1,32.5c0.1,3-0.6,4.1-3.8,3.9c-4.8-0.3-9.7-0.3-14.5,0
		c-3.3,0.2-4.1-0.9-4.1-4.1c0.1-21.3-0.1-42.6,0.2-63.9c0.1-4.3-1.2-5.4-5.3-5.1c-4.5,0.4-9-0.1-13.5,0.1c-2.9,0.2-3.6-0.9-3.5-3.7
		c0.2-5.2,0.2-10.3,0-15.5c-0.1-2.4,0.7-3.1,3.1-3.1c20.1,0.1,40.3,0.1,60.4,0c2.5,0,3,1,3,3.2c-0.1,5.3-0.2,10.7,0,16
		c0.1,2.5-0.9,3.1-3.2,3c-4.7-0.1-9.4,0.3-14-0.1c-4.4-0.4-5.1,1.3-5,5.3C507.1,61.7,506.9,72.2,506.9,82.7z"/>
	<path class="st0" d="M664.3,24c6.7,0,13.4,0.1,20.2-0.1c2.5-0.1,2.6,1.7,3.1,3.1c2.9,8.2,5.8,16.4,9.1,25.5c3.2-8.9,6.3-17,9-25.1
		c0.9-2.6,2-3.7,4.9-3.6c6.1,0.3,12.3,0.1,18.4,0.1c0.8,2-0.5,3.4-1.1,4.8c-6,14.2-12.1,28.4-18.3,42.5c-1.1,2.5-1.6,5-1.6,7.7
		c0.1,12-0.1,24,0.1,36c0.1,3.2-0.7,4.3-4.1,4.2c-5-0.3-10-0.2-15,0c-2.7,0.1-3.3-0.8-3.3-3.4c0.1-11.8,0-23.6,0.1-35.5
		c0-3.4-0.7-6.5-2-9.6c-6.2-14.1-12.3-28.3-18.4-42.5C664.8,27,663.8,25.9,664.3,24z"/>
	<path class="st0" d="M541.5,71.3c0-14.5,0.1-29-0.1-43.4c0-3,0.6-4.1,3.8-3.9c5.1,0.3,10.3,0.2,15.5,0c2.4-0.1,3.1,0.7,3.1,3.1
		c-0.1,29.6-0.1,59.2,0,88.9c0,2.3-0.6,3.2-3,3.2c-5.2-0.2-10.3-0.2-15.5,0c-3.1,0.2-3.9-0.8-3.9-3.9
		C541.6,100.6,541.5,85.9,541.5,71.3z"/>
	<path class="st1" d="M447.9,163.7c-2.8,1.6-5.4,2.6-8.2,2.7c-8.4,0.3-15-5.5-15.1-13.2c-0.1-7.6,6.1-13.6,14.4-13.1
		c4.9,0.3,9.8,0.9,14.7,0.2c2-0.3,3.1,0.4,3.1,2.7c-0.2,7.3,0.1,14.6-0.4,21.9c-0.6,7.9-5.3,12.3-13.2,13c-3.8,0.3-7.6,0.2-11.4-0.7
		c-1.9-0.5-2.7-1.1-2.8-3.2c-0.2-3.4,0.3-4.6,4.2-3.6c8.7,2.2,12.7,0.7,14.8-4.7C448,165.3,447.9,165,447.9,163.7z M448,153.3
		c0.1-3.7-2.8-6.2-7.2-6.4c-4.2-0.1-7,2.2-7,6c-0.1,3.9,2.4,6.3,6.6,6.4C444.8,159.3,447.9,156.8,448,153.3z"/>
	<path class="st1" d="M687.1,157.4c4.5,5.2,7.7,5.8,12.5,3.2c1.1-0.6,1.9-2.2,3.4-1.6c1.8,0.7,4.4,0.8,4.9,2.7
		c0.4,1.5-1.7,2.7-3,3.6c-9.7,7.3-24.8,2.3-26.9-8.7c-1.1-6,1.2-10.5,5.9-13.8c6-4.2,12.5-4.2,18.9-0.8c5,2.7,6.9,7.4,7.2,12.9
		c0.2,2.7-1.5,2.4-3.2,2.4C700.5,157.4,694.2,157.4,687.1,157.4z M687.3,151.6c3.1,0,5.6,0.2,8.1-0.1c1.6-0.2,4.4,1.2,4.6-1
		c0.3-2.6-2.5-3.7-4.8-3.9C691.6,146.2,688.7,147.2,687.3,151.6z"/>
	<path class="st1" d="M336.6,157.4c3.1,4.9,6.8,5.9,11.5,3.4c1.2-0.6,2-2.2,3.4-1.8c1.9,0.5,4.5,1.1,5.2,2.5c0.9,1.7-1.6,2.9-3,4
		c-10,7.4-25.2,2.1-26.9-9.3c-0.9-6,1.7-10.5,6.5-13.5c5.9-3.8,12.4-3.8,18.5-0.5c5,2.7,6.8,7.4,7.1,12.9c0.1,2.8-1.7,2.3-3.3,2.3
		C349.5,157.4,343.2,157.4,336.6,157.4z M336.4,151.6c2.8,0,5.2,0.2,7.6-0.1c1.7-0.2,4.8,1.3,5-1.1c0.2-2.9-2.9-3.8-5.4-3.9
		C340.3,146.4,337.4,147.3,336.4,151.6z"/>
	<path class="st1" d="M492.7,157.5c0,1.5,0,3,0,4.5c0,6.4-0.6,7.3-6.6,5.8c-2.6-0.7-4.6-0.2-6.8,0.4c-2.8,0.8-5.6,0.5-8.3-0.3
		c-3.8-1.1-6.1-3.5-6.3-7.4c-0.2-4.3,2.2-6.8,6.1-8.1c3.4-1.1,6.9-1.2,10.4-1.1c1,0,2.5,0.6,2.8-1.1c0.2-1.3-0.7-2.2-1.7-2.9
		c-3.2-2.1-6.6-1.5-9.4,0.5c-3.4,2.4-4.5-0.2-5.7-2.1c-1.4-2.5,1.2-2.9,2.6-3.7c4.9-2.7,10.3-2.6,15.5-1.3c4.8,1.3,7.6,4.5,7.5,9.8
		C492.7,152.9,492.7,155.2,492.7,157.5z M479.7,156.6c-2.2,0.6-5.5-0.8-5.9,3c-0.2,2.9,2.4,3,4.3,2.9c2.6-0.1,5.8-0.5,5.8-4
		C484,155.4,481.1,157.3,479.7,156.6z"/>
	<path class="st1" d="M537.9,140c9.1,0,16.3,6,16.5,13.9c0.2,7.9-7.3,14.8-16.3,14.8c-9,0-16.5-6.6-16.5-14.6
		C521.6,146.3,528.8,140,537.9,140z M545.3,154.4c0.1-4.8-2.6-7.7-7.1-7.7c-4.3,0-7.2,2.8-7.4,7c-0.2,4.6,3.1,8.3,7.4,8.2
		C542,161.9,545.2,158.6,545.3,154.4z"/>
	<path class="st1" d="M282.2,140c9,0,16.2,6.3,16.2,14.2c0,8-7.6,14.7-16.5,14.6c-8.8-0.1-16.1-6.6-16.2-14.4
		C265.5,146.3,272.8,140,282.2,140z M281.6,162c3.8,0.3,7.3-2.9,7.6-7c0.4-4.8-2.2-8-6.6-8.2c-4.3-0.3-7.5,2.4-7.9,6.5
		C274.3,157.9,277.3,161.6,281.6,162z"/>
	<path class="st1" d="M562.3,154c0-3-0.1-6,0-9c0.1-1.5-1-3.9,1-4.4c2.3-0.7,5.7-1.4,7,0.3c1.5,2,2.1,1.1,3.3,0.4
		c3.1-1.8,6.5-1.8,9.7-1.2c4.5,0.9,7.5,3.5,7.6,8.5c0.1,5.5-0.2,11,0.1,16.4c0.2,3.7-2.2,3-4.2,2.9c-2.1-0.1-4.9,1-4.7-3
		c0.2-4.1,0.1-8.3,0-12.5c0-3.2-1.1-5.8-4.9-5.4c-3.4,0.3-6.6,1.3-6.5,5.8c0.1,4-0.2,8,0.1,12c0.2,3.5-1.8,3.3-4.1,3.1
		c-2.1-0.2-4.9,1.1-4.7-3C562.5,161.3,562.3,157.7,562.3,154z"/>
	<path class="st1" d="M669,156.9c0,2.2-0.3,4.4,0.1,6.5c0.7,4.3-1.5,4.7-5,4.7c-3.2,0-4-1-3.8-4c0.2-4,0.1-8,0-12
		c0-3.1-1.2-5.4-4.7-5.1c-3.2,0.3-6.5,1-6.6,5.2c-0.2,4.1-0.3,8.3,0,12.5c0.3,3.9-2.1,3.3-4.4,3.3c-2.4,0-4.5,0.4-4.4-3.4
		c0.3-6.5,0-13,0.1-19.4c0-1.6-1.2-4.2,1.3-4.7c2.3-0.4,5.3-1.4,7,0.7c1.1,1.3,1.4,1,2.5,0.6c11.7-4.8,17.9-0.6,17.9,11.7
		C669,154.6,669,155.8,669,156.9z"/>
	<path class="st1" d="M243,159.3c2.3-6.4,4.1-11.4,6-16.3c0.8-2.2,8.3-4,9.9-2.4c0.8,0.7,0.2,1.6-0.1,2.3c-3.1,7.7-6.4,15.3-9.5,23
		c-1.7,4.1-5.2,1.7-7.8,2.1c-2,0.3-4.1,0.6-5.2-2.3c-2.4-6.5-5.2-12.9-7.9-19.4c-0.7-1.7-1.3-3.4-2-5.1c8.1-2.3,9.1-1.7,11.9,5.8
		C239.8,150.6,241.2,154.3,243,159.3z"/>
	<path class="st1" d="M202.3,145c0-4,0.2-8,0-12c-0.2-3.7,2.3-2.9,4.3-2.9c2,0,4.7-0.9,4.3,2.9c-0.1,0.7,0.1,1.4,0,2
		c-0.8,4.4,1,6,5.4,5.4c1.9-0.2,4.4-1,4.6,2.7c0.1,3.1-0.8,4-3.9,3.9c-6-0.1-6,0.1-6,7.1c0.1,6.7,0.5,7.3,6.3,7.2
		c2,0,3.7-0.1,3.5,2.7c-0.1,2.2,0.2,4-3,4.5c-9.5,1.5-15.3-3-15.4-12.6C202.2,152.3,202.3,148.7,202.3,145z"/>
	<path class="st1" d="M318.1,155.4c0,4.6,0.4,9.3-0.1,13.9c-0.8,6.7-7.3,10.5-13.6,8.5c-2.7-0.8-1.5-2.9-1.8-4.5
		c-0.2-1.6,0.5-2.5,2.2-2.3c4.6,0.6,5.2-2.4,5.1-5.9c0-7.2,0.1-14.3-0.1-21.5c-0.1-3.2,1.4-3.6,3.9-3.4c2.2,0.2,4.9-0.7,4.6,3.2
		c-0.2,4,0,8,0,12C318.3,155.4,318.2,155.4,318.1,155.4z"/>
	<path class="st1" d="M395.9,149.5c0,5.2-0.2,10.3,0.1,15.5c0.2,3.6-2,3.1-4.1,3c-2.2-0.1-4.7,0.9-4.6-3.1c0.2-10.5,0.2-21,0-31.4
		c-0.1-3.8,2-3.4,4.4-3.4c2.5,0,4.6-0.3,4.4,3.5C395.7,138.8,395.9,144.2,395.9,149.5z"/>
	<path class="st1" d="M602.3,148.6c0-5,0.2-10-0.1-15c-0.2-3.6,1.7-3.6,4.3-3.5c2.3,0.1,4.6-0.5,4.5,3.3c-0.2,10.5-0.2,21,0,31.4
		c0.1,3.9-2.3,3.1-4.5,3.2c-2.5,0.1-4.5,0.1-4.3-3.5C602.5,159.2,602.3,153.9,602.3,148.6z"/>
	<path class="st1" d="M414.9,154.4c0,3-0.2,6,0.1,9c0.4,3.6-0.7,4.8-4.6,4.8c-3.8,0-4.3-1.5-4.2-4.7c0.2-6.7,0.2-13.3,0-20
		c-0.1-3.9,2.4-3.2,4.6-3.2c2.2-0.1,4.4-0.4,4.1,3.1C414.7,147,414.9,150.7,414.9,154.4z"/>
	<path class="st1" d="M621.3,154.5c0-3.2,0.2-6.3-0.1-9.5c-0.3-3.6,0.7-4.9,4.6-4.9c3.9,0,4.2,1.6,4.1,4.8c-0.2,6.7-0.2,13.3,0,20
		c0.1,3.4-1.8,3.3-4.1,3.1c-2.1-0.2-5,1.1-4.7-3C621.5,161.5,621.3,158,621.3,154.5z"/>
	<path class="st1" d="M314.3,137.6c-3,0.6-4.4-0.2-4.4-3.8c-0.1-3.8,1.7-3.8,4.5-3.8c2.8,0,4.6,0.1,4.5,3.9
		C318.8,137.6,317.2,138.1,314.3,137.6z"/>
	<path class="st1" d="M410.4,137.7c-3.2,0.7-4.1-0.7-4.2-4c-0.2-4.2,2.3-3.4,4.7-3.6c3.2-0.3,4.2,0.7,4.3,4.1
		C415.3,138.1,413.1,137.9,410.4,137.7z"/>
	<path class="st1" d="M625.3,130.2c3.1-0.5,4.9-0.3,4.9,3.6c0,3.6-1.4,4.1-4.4,4c-2.7-0.1-4.7,0.1-4.6-3.8
		C621.2,130.5,622.3,129.3,625.3,130.2z"/>
	<path class="st2" d="M336.4,151.6"/>
	<path class="st2" d="M348.9,150.4"/>
	<path class="st2" d="M473.9,159.6"/>
	<path class="st2" d="M483.9,158.4"/>
</g>
</svg>
