<svg id="Vrstva_1" data-name="Vrstva 1" xmlns="http://www.w3.org/2000/svg" viewBox="0 0 177.99 166.17"><defs><style>.cls-1{fill:#fcfcfc;}.cls-2{fill:#f3d501;}</style></defs><title>sportify_logo_mini</title><path class="cls-1" d="M-.1,106.41c0-14.3.4-28.7-.1-43-.5-13.5,12.2-18.5,22.6-17.1,3.5.5,2.2,4.1,2.4,6.2.8,7.6,2.9,14.4,7.7,20.5,7.6,9.8,18.2,14.9,29.6,18.9,13.6,4.8,27.9,6.5,41.6,10.9a46.05,46.05,0,0,1,11.5,5.2c6.1,3.9,4.7,17-2.1,20.9-13.5,7.7-40,7.8-51.2-6.4a31,31,0,0,1-4.7-9c-1-2.7-2.4-4-5.2-4-9.2,0-18.3.1-27.5,0-3.6,0-4.5,1.6-4.1,5,2.7,23.1,14.9,39,36.2,48.2,1.2.5,3.7,0,3.1,2.3-.5,1.9-2.5.9-3.8.9q-19.5.15-39,0c-10.3-.1-17-6.9-17-17C-.1,134.71-.1,120.51-.1,106.41Z" transform="translate(0.22)"/><path class="cls-2" d="M112.7.11c16.1,0,32.2-.3,48.3.1,9.5.2,16.7,8.2,16.7,17.7.1,27.8.1,55.7,0,83.5,0,9.8-8.2,17.5-18,17.5-2.7,0-3.4-1-3.4-3.5.1-22.8-12.2-36.6-32.4-44.8-14.6-5.9-30-8.7-45.2-12.5a51.6,51.6,0,0,1-10.8-3.9c-6.8-3.3-7.6-10.4-1.7-15.3,3.4-2.8,7.6-4.1,11.9-4.8a49.72,49.72,0,0,1,15.4-.2c9.1,1.2,16,5.4,19.6,14.2,1.4,3.4,3.5,4.9,7.2,4.8,8.3-.2,16.7-.2,25,0,4,.1,5.7-1.4,5.4-5.6-1.3-19.7-11.7-33.1-28.7-42-3-1.6-6.3-2.8-9.5-4.2A4.4,4.4,0,0,0,112.7.11Z" transform="translate(0.22)"/></svg>